<svg xmlns="http://www.w3.org/2000/svg" viewBox="0 0 15.499 19.98"><defs><style>.cls-1{fill:#bd4f6c;}</style></defs><title>congrat_medal</title><g id="レイヤー_2" data-name="レイヤー 2"><g id="レイヤー_1-2" data-name="レイヤー 1"><circle class="cls-1" cx="7.75" cy="12.231" r="5.01"/><path class="cls-1" d="M11,5.2h0L14.67,0h-3.4L8.1,4.5h0c-.117,0-.232-.017-.351-.017s-.233.012-.35.017h0L4.226,0H.829L4.5,5.2h0a7.75,7.75,0,1,0,6.5,0ZM9.606,4.715h0Zm.717.214-.01,0Zm-5.138,0-.008,0ZM5.9,4.714h0ZM7.75,18.241a6.01,6.01,0,1,1,6.009-6.01A6.017,6.017,0,0,1,7.75,18.241Z"/></g></g></svg>