<svg xmlns="http://www.w3.org/2000/svg" viewBox="0 0 134.39 137.872"><defs><style>.cls-1{fill:#fff;}</style></defs><title>アセット 13</title><g id="レイヤー_2" data-name="レイヤー 2"><g id="レイヤー_2-2" data-name="レイヤー 2"><path class="cls-1" d="M130.945,21.745a291.393,291.393,0,0,1-127.5,0A4.151,4.151,0,0,1,.1,16.863Q1.759,9.969,3.415,3.074A4.084,4.084,0,0,1,8.3.1,269.226,269.226,0,0,0,126.092.1a4.086,4.086,0,0,1,4.883,2.973q1.656,6.894,3.311,13.789A4.152,4.152,0,0,1,130.945,21.745Z"/><path class="cls-1" d="M88.2,108.927c0,15.986-9.4,28.945-21,28.945s-21-12.959-21-28.945c0-7.119,2.917-20.375,7.537-32.932A279.769,279.769,0,0,1,67.195,45.816,308.293,308.293,0,0,1,80.984,76.293C85.9,89.437,88.2,101.415,88.2,108.927Z"/></g></g></svg>